<?xml version="1.0" encoding="iso-8859-1"?>
<!-- Generator: Adobe Illustrator 19.0.0, SVG Export Plug-In . SVG Version: 6.00 Build 0)  -->
<svg version="1.1" id="Layer_1" xmlns="http://www.w3.org/2000/svg" xmlns:xlink="http://www.w3.org/1999/xlink" x="0px" y="0px"
	 viewBox="0 0 512 512" style="enable-background:new 0 0 512 512;" xml:space="preserve">
<g id="Others">
</g>
<g id="Design">
</g>
<g id="SEO_x2F__Web">
</g>
<g id="Finance__x2F__Money">
</g>
<g id="E-Commerce__x2F__Shopping">
</g>
<g id="Strategy">
	<g id="mission_1">
		
			<radialGradient id="SVGID_1_" cx="256" cy="258" r="256" gradientTransform="matrix(1 0 0 -1 0 514)" gradientUnits="userSpaceOnUse">
			<stop  offset="0.0051" style="stop-color:#33495F"/>
			<stop  offset="1" style="stop-color:#2B3E51"/>
		</radialGradient>
		<path style="fill:url(#SVGID_1_);" d="M512,256c0,141.385-114.615,256-256,256c-70.295,0-133.973-28.333-180.237-74.203
			C28.977,391.41,0,327.09,0,256C0,114.615,114.615,0,256,0S512,114.615,512,256z"/>
		<path style="opacity:0.5;fill:#ECF0F1;enable-background:new    ;" d="M381.078,426.269c-2.325-0.286-4.688-0.451-7.09-0.451
			c-5.161,0-10.157,0.69-14.915,1.967c-4.302-18.914-17.811-34.315-35.573-41.251c0.071-0.82,0.115-1.648,0.115-2.488
			c0-15.652-12.69-28.344-28.345-28.344c-0.575,0-1.144,0.022-1.708,0.056C289.874,337.637,273.85,324,254.64,324
			c-17.72,0-32.726,11.607-37.84,27.632c-10.73,1.948-18.95,11.02-19.612,22.145c-23.444,1.68-43.144,16.837-51.402,37.775
			c-10.41,3.072-19.661,8.831-26.963,16.475c-10.261-4.302-21.527-6.685-33.352-6.685c-7.745,0-15.248,1.029-22.387,2.945
			c4.064,4.654,8.294,9.161,12.68,13.51C122.027,483.667,185.705,512,256,512c80.438,0,152.197-37.11,199.129-95.131
			c-8.613-8.308-20.316-13.43-33.229-13.43C404.636,403.439,389.511,412.573,381.078,426.269z"/>
		<path style="fill:#E87E04;" d="M293.221,374.112C293.221,417.333,256,472,256,472s-37.221-50.667-37.221-97.888
			c0-20.557,16.664-37.221,37.221-37.221S293.221,353.556,293.221,374.112z"/>
		<path style="fill:#F59D00;" d="M280.721,361.611c0,28.705-24.721,65.014-24.721,65.014s-24.72-33.65-24.72-65.014
			c0-13.653,11.067-24.72,24.72-24.72C269.653,336.892,280.721,347.958,280.721,361.611z"/>
		<path style="fill:#F2C500;" d="M271.887,355.945c0,17.48-15.054,39.591-15.054,39.591s-15.054-20.492-15.054-39.591
			c0-8.314,6.74-15.054,15.054-15.054C265.147,340.892,271.887,347.631,271.887,355.945z"/>
		<g>
			<path style="fill:#ECF0F1;" d="M321.688,96.85C320.244,93.807,257,115.9,257,115.9s-63.244-22.094-64.687-19.051
				c0.083,0.058,0.171,0.116,0.255,0.174c-54.327,114.711,18.622,242.512,18.622,242.512s2.185,4.465,7.589,4.465
				c5.875,0,38.221,0,38.221,0s32.8,0,38.676,0c5.404,0,7.476-4.465,7.476-4.465s72.887-127.888,18.455-242.63
				C321.632,96.887,321.661,96.868,321.688,96.85z"/>
			<path style="fill:#BDC3C7;" d="M321.605,96.904c54.434,114.742-18.454,242.631-18.454,242.631S301.08,344,295.676,344
				C289.8,344,257,344,257,344V115.9C290,113.764,310.462,104.67,321.605,96.904z"/>
			<path style="fill:#E94B35;" d="M257,19.118c-24,0-51.583,50.105-64.687,77.731C203.457,104.615,224,113.764,257,115.9
				c33-2.137,53.543-11.285,64.688-19.051C308.583,69.224,281,19.118,257,19.118z"/>
			<path style="fill:#C23824;" d="M257,19.118V115.9c33-2.137,53.543-11.285,64.688-19.051C308.583,69.224,281,19.118,257,19.118z"
				/>
			<path style="fill:#E87E04;" d="M192.639,253.07l26.213,73.479c0.924,2.59-0.569,4.658-3.318,4.597
				c0,0-48.944-5.138-48.986,40.823c0,0,0.202,4.03-3.423,4.03s-18.856,0-18.856,0c-2.75,0-5.901-2.062-7.002-4.582
				C137.267,371.418,96.467,278.057,192.639,253.07z"/>
			<path style="fill:#D55400;" d="M321.361,253.07l-26.213,73.479c-0.924,2.59,0.569,4.658,3.318,4.597
				c0,0,48.944-5.138,48.986,40.823c0,0-0.202,4.03,3.423,4.03s18.856,0,18.856,0c2.75,0,5.901-2.062,7.002-4.582
				C376.733,371.418,417.533,278.057,321.361,253.07z"/>
			<circle style="fill:#E94B35;" cx="256.74" cy="182.344" r="47.157"/>
			<path style="fill:#2B3E51;" d="M256.741,220.327c-20.944,0-37.983-17.04-37.983-37.983c0-20.944,17.039-37.983,37.983-37.983
				s37.982,17.039,37.982,37.983C294.724,203.287,277.685,220.327,256.741,220.327z"/>
			<path style="fill:#33495F;" d="M255.687,220.301l39.01-39.01c-0.263-9.582-4.085-18.285-10.197-24.835l-53.646,53.646
				C237.403,216.215,246.106,220.038,255.687,220.301z"/>
			<path style="fill:#33495F;" d="M222.164,198.033l50.268-50.267c-3.47-1.581-7.217-2.653-11.147-3.125l-42.245,42.245
				C219.51,190.817,220.583,194.562,222.164,198.033z"/>
			<path style="fill:#E87E04;" d="M254,253c-2.761,0-5,2.238-5,5v113c0,2.762,2.239,5,5,5h3V253H254z"/>
			<path style="fill:#D55400;" d="M259,253h-2v123h2c2.761,0,5-2.238,5-5V258C264,255.238,261.761,253,259,253z"/>
		</g>
		<g style="opacity:0.5;">
			<path style="fill:#ECF0F1;" d="M67.396,227.119c1.946-1.943,3.832-1.303,4.191,1.424l0.463,3.513
				c0.359,2.727,2.658,5.979,5.107,7.229l3.157,1.61c2.449,1.25,2.423,3.241-0.059,4.426l-3.199,1.525
				c-2.482,1.185-4.866,4.376-5.297,7.091l-0.556,3.5c-0.432,2.715-2.333,3.306-4.227,1.311l-2.439-2.57
				c-1.894-1.994-5.665-3.275-8.381-2.846l-3.5,0.553c-2.716,0.429-3.866-1.198-2.554-3.615l1.691-3.114
				c1.312-2.417,1.365-6.399,0.118-8.851l-1.607-3.159c-1.247-2.45-0.055-4.046,2.649-3.545l3.484,0.646
				c2.704,0.501,6.508-0.679,8.454-2.622L67.396,227.119z"/>
		</g>
		<g>
			<path style="fill:#ECF0F1;" d="M106.979,100.077c0.356-2.728,2.241-3.37,4.189-1.429l3.188,3.178
				c1.948,1.941,5.753,3.118,8.457,2.614l4.425-0.825c2.704-0.504,3.897,1.09,2.653,3.543l-2.037,4.014
				c-1.245,2.453-1.187,6.436,0.127,8.851l2.152,3.954c1.314,2.416,0.167,4.043-2.549,3.617l-4.448-0.696
				c-2.717-0.426-6.487,0.859-8.377,2.856l-3.096,3.268c-1.891,1.997-3.793,1.409-4.228-1.307l-0.712-4.444
				c-0.435-2.716-2.822-5.904-5.305-7.085l-4.065-1.934c-2.483-1.182-2.512-3.173-0.064-4.426l4.008-2.051
				c2.448-1.253,4.743-4.508,5.099-7.235L106.979,100.077z"/>
		</g>
		<g>
			<path style="fill:#ECF0F1;" d="M446.601,267.611c0.613-2.681,2.55-3.142,4.305-1.024l6.333,7.64
				c1.755,2.117,5.432,3.648,8.171,3.403l9.883-0.887c2.739-0.245,3.776,1.454,2.305,3.778l-5.308,8.381
				c-1.472,2.324-1.792,6.294-0.711,8.823l3.896,9.125c1.08,2.529-0.216,4.041-2.88,3.36l-9.613-2.458
				c-2.665-0.681-6.539,0.241-8.611,2.05l-7.474,6.525c-2.072,1.809-3.91,1.043-4.085-1.701l-0.633-9.902
				c-0.175-2.745-2.25-6.145-4.61-7.556l-8.516-5.092c-2.36-1.411-2.2-3.396,0.355-4.411l9.223-3.662
				c2.556-1.015,5.148-4.038,5.761-6.719L446.601,267.611z"/>
		</g>
		<g style="opacity:0.5;">
			<path style="fill:#ECF0F1;" d="M402.874,128.743c1.86-2.024,3.771-1.466,4.247,1.243l0.646,3.685
				c0.476,2.708,2.91,5.86,5.411,7.005l3.402,1.556c2.501,1.145,2.56,3.135,0.13,4.424l-3.304,1.754
				c-2.429,1.289-4.674,4.579-4.989,7.311l-0.429,3.716c-0.315,2.731-2.19,3.402-4.167,1.49l-2.688-2.6
				c-1.977-1.912-5.8-3.031-8.495-2.486l-3.666,0.74c-2.695,0.545-3.913-1.031-2.706-3.502l1.642-3.36
				c1.208-2.471,1.09-6.452-0.261-8.848l-1.837-3.258c-1.351-2.396-0.228-4.04,2.495-3.655l3.704,0.523
				c2.723,0.385,6.473-0.957,8.334-2.982L402.874,128.743z"/>
		</g>
	</g>
</g>
<g>
</g>
<g>
</g>
<g>
</g>
<g>
</g>
<g>
</g>
<g>
</g>
<g>
</g>
<g>
</g>
<g>
</g>
<g>
</g>
<g>
</g>
<g>
</g>
<g>
</g>
<g>
</g>
<g>
</g>
</svg>
