<svg id="color" enable-background="new 0 0 24 24" height="512" viewBox="0 0 24 24" width="512" xmlns="http://www.w3.org/2000/svg"><path d="m19 12c0 2.16-.98 4.16-2.67 5.5-.69.54-1.14 1.25-1.28 2.01l-.05-.01h-6l-.07.01c-.14-.79-.55-1.48-1.14-1.92-2.18-1.65-3.2-4.35-2.64-7.07.55-2.65 2.7-4.81 5.35-5.36 2.11-.45 4.27.07 5.91 1.4 1.65 1.34 2.59 3.32 2.59 5.44z" fill="#ffc107"/><path d="m11.999 5.001c-.497 0-.999.052-1.499.159-2.65.55-4.8 2.71-5.35 5.36-.56 2.72.46 5.42 2.64 7.07.59.44 1 1.13 1.14 1.92l.07-.01h3v-14.499c-.001 0-.001 0-.001 0z" fill="#dea806"/><g fill="#ffc107"><path d="m18.571 6.179c-.192 0-.384-.073-.53-.22-.293-.293-.293-.768 0-1.061l1.384-1.384c.293-.293.768-.293 1.061 0s.293.768 0 1.061l-1.384 1.384c-.147.146-.339.22-.531.22z"/><path d="m23.25 12.75h-1.957c-.414 0-.75-.336-.75-.75s.336-.75.75-.75h1.957c.414 0 .75.336.75.75s-.336.75-.75.75z"/><path d="m19.955 20.705c-.192 0-.384-.073-.53-.22l-1.384-1.384c-.293-.293-.293-.768 0-1.061s.768-.293 1.061 0l1.384 1.384c.293.293.293.768 0 1.061-.147.147-.339.22-.531.22z"/></g><path d="m15.05 19.51c-.03.17-.05.34-.05.52v2.22c0 .96-.79 1.75-1.75 1.75h-2.5c-.84 0-1.75-.64-1.75-2.04v-1.77c0-.23-.02-.46-.07-.68l.07-.01h6z" fill="#607d8b"/><path d="m12 19.5h-3l-.07.01c.05.22.07.45.07.68v1.77c0 1.4.91 2.04 1.75 2.04h1.25z" fill="#546d79"/><path d="m12 3.457c-.414 0-.75-.336-.75-.75v-1.957c0-.414.336-.75.75-.75s.75.336.75.75v1.957c0 .414-.336.75-.75.75z" fill="#ffc107"/><path d="m12 0c-.414 0-.75.336-.75.75v1.957c0 .414.336.75.75.75z" fill="#dea806"/><path d="m5.429 6.179c-.192 0-.384-.073-.53-.22l-1.384-1.384c-.293-.293-.293-.768 0-1.061s.768-.293 1.061 0l1.384 1.384c.293.293.293.768 0 1.061-.148.146-.339.22-.531.22z" fill="#ffc107"/><path d="m3.515 3.515c-.293.293-.293.768 0 1.061l1.384 1.384c.147.146.338.22.53.22s.384-.073.53-.22z" fill="#dea806"/><path d="m2.707 12.75h-1.957c-.414 0-.75-.336-.75-.75s.336-.75.75-.75h1.957c.414 0 .75.336.75.75s-.336.75-.75.75z" fill="#ffc107"/><path d="m3.457 12h-3.457c0 .414.336.75.75.75h1.957c.414 0 .75-.336.75-.75z" fill="#dea806"/><path d="m4.045 20.705c-.192 0-.384-.073-.53-.22-.293-.293-.293-.768 0-1.061l1.384-1.384c.293-.293.768-.293 1.061 0s.293.768 0 1.061l-1.384 1.384c-.147.147-.339.22-.531.22z" fill="#ffc107"/><path d="m5.959 18.041-2.444 2.444c.146.146.338.22.53.22s.384-.073.53-.22l1.384-1.384c.293-.292.293-.767 0-1.06z" fill="#dea806"/><path d="m15.75 12.5c-.414 0-.75-.336-.75-.75 0-1.517-1.233-2.75-2.75-2.75-.414 0-.75-.336-.75-.75s.336-.75.75-.75c2.343 0 4.25 1.907 4.25 4.25 0 .414-.336.75-.75.75z" fill="#ffd54f"/><path d="m11.736 8.246c-.077 0-.156.001-.236.004 0 .414.336.75.75.75 1.517 0 2.75 1.233 2.75 2.75 0 .414.336.75.75.75s.555-4.254-4.014-4.254z" fill="#deb945"/></svg>